<svg xmlns="http://www.w3.org/2000/svg" xmlns:svg="http://www.w3.org/2000/svg" id="svg2" width="578.107" height="816" version="1.1" viewBox="0 0 578.107 816" xml:space="preserve"><metadata id="metadata8"/><g id="g10" transform="matrix(1.3333333,0,0,-1.3333333,0,816)"><g id="g12" transform="scale(0.1)"><path id="path14" d="M 394.578,491.551 0,4917.28 H 4335.8 L 3940.79,492.25 2165.24,0 394.578,491.551" style="fill:#e53d20;fill-opacity:1;fill-rule:nonzero;stroke:none"/><path id="path16" d="M 2167.9,376.25 3602.63,774.012 3940.19,4555.41 H 2167.9 V 376.25" style="fill:#f15123;fill-opacity:1;fill-rule:nonzero;stroke:none"/><path id="path18" d="m 2167.9,2913.96 h -718.26 l -49.61,555.84 h 767.87 v 542.8 h -1.88 -1359.204 l 12.997,-145.62 133.41,-1495.8 H 2167.9 v 542.78" style="fill:#ededed;fill-opacity:1;fill-rule:nonzero;stroke:none"/><path id="path20" d="m 2167.9,1504.27 -2.38,-0.64 -604.51,163.24 -38.66,432.9 H 1228.61 977.469 l 76.051,-852.27 1111.88,-308.66 2.5,0.691 v 564.739" style="fill:#ededed;fill-opacity:1;fill-rule:nonzero;stroke:none"/><path id="path22" d="M 403.398,6120 H 679.246 V 5847.47 H 931.57 V 6120 h 275.86 V 5294.71 H 931.582 v 276.35 H 679.258 V 5294.71 H 403.418 V 6120 h -0.02" style="fill:#100f0d;fill-opacity:1;fill-rule:nonzero;stroke:none"/><path id="path24" d="M 1570.17,5846.32 H 1327.33 V 6120 h 761.65 v -273.68 h -242.95 v -551.61 h -275.84 v 551.61 h -0.02" style="fill:#100f0d;fill-opacity:1;fill-rule:nonzero;stroke:none"/><path id="path26" d="m 2209.86,6120 h 287.63 l 176.93,-289.98 176.75,289.98 h 287.74 V 5294.71 H 2864.2 v 409.06 l -189.78,-293.44 h -4.74 l -189.91,293.44 V 5294.71 H 2209.86 V 6120" style="fill:#100f0d;fill-opacity:1;fill-rule:nonzero;stroke:none"/><path id="path28" d="m 3276.19,6120 h 275.93 v -552.5 h 387.91 V 5294.71 H 3276.19 V 6120" style="fill:#100f0d;fill-opacity:1;fill-rule:nonzero;stroke:none"/><path id="path30" d="m 2166.02,2913.96 v -542.78 h 668.39 l -63,-703.97 -605.39,-163.4 V 939.102 l 1112.76,308.398 8.16,91.7 127.56,1429.01 13.24,145.75 H 3281.47 2166.02" style="fill:#fff;fill-opacity:1;fill-rule:nonzero;stroke:none"/><path id="path32" d="m 2166.02,4012.6 v -542.8 h 1309.37 v 0 h 1.74 l 10.89,122.01 24.73,275.17 12.98,145.62 H 2166.02" style="fill:#fff;fill-opacity:1;fill-rule:nonzero;stroke:none"/></g></g></svg>